<?xml version="1.0" encoding="UTF-8" standalone="no"?><svg xmlns="http://www.w3.org/2000/svg" xmlns:xlink="http://www.w3.org/1999/xlink" contentScriptType="text/ecmascript" fill="#fd6220" width="283" zoomAndPan="magnify" contentStyleType="text/css" viewBox="108.5 177.0 283.0 191.3" height="191.3" preserveAspectRatio="xMidYMid meet" version="1"><g id="change1_1"><path d="M172.4,368.3c-40-26.3-63.9-70.5-63.9-118.3c0-25.8,7-51.1,20.3-73l0.9,0.5c-13.2,21.8-20.1,46.9-20.1,72.5 c0,47.5,23.7,91.4,63.4,117.5L172.4,368.3L172.4,368.3z"/></g><g id="change1_2"><path d="M327.5,368.3l-0.5-0.8c39.7-26.1,63.4-70,63.4-117.5c0-25.6-7-50.7-20.1-72.5l0.9-0.5c13.3,22,20.3,47.2,20.3,73 C391.4,297.8,367.5,342,327.5,368.3z"/></g></svg>